<svg xmlns="http://www.w3.org/2000/svg" xml:space="preserve" width="125mm" height="125mm"
    version="1.1"
    style="shape-rendering:geometricPrecision; text-rendering:geometricPrecision; image-rendering:optimizeQuality; fill-rule:evenodd; clip-rule:evenodd"
    viewBox="0 0 12500 12500"
    xmlns:xlink="http://www.w3.org/1999/xlink"
    xmlns:xodm="http://www.corel.com/coreldraw/odm/2003">
 <g fill="white" fill-rule="evenodd" id="Слой_x0020_1">
  <metadata id="CorelCorpID_0Corel-Layer"/>
  <path class="fil0" d="M6249.04 6.87c2530.35,0 4709.71,1502.39 5695.01,3663.72l-10498.86 0 0 667.71 0 107.37 0 5824.19c-906.45,-1085.3 -1452.06,-2482.39 -1452.06,-4007.08 0,-3455.08 2800.83,-6255.91 6255.91,-6255.91zm1824.73 8070.77l759.24 0 0 -1419.89 1450.72 0 0 1419.89 758.5 0 0 -1419.89 1449.87 0c-196.03,3145.48 -2716.08,5660.83 -5863.68,5849.12l0 -5849.12 1445.35 0 0 1419.89zm4162.77 -3631.97c139.05,458.95 226.73,940.21 256.59,1437l-5864.71 0 -473.34 0 -286.02 0 0 6624.2c-1393.44,-83.54 -2663.85,-623.11 -3664.21,-1471.62l0 -6589.58 10031.69 0z"/>
 </g>
</svg>