<svg xmlns="http://www.w3.org/2000/svg" xml:space="preserve" width="125mm" height="125mm" version="1.1" style="shape-rendering:geometricPrecision; text-rendering:geometricPrecision; image-rendering:optimizeQuality; fill-rule:evenodd; clip-rule:evenodd"
viewBox="0 0 12500 12500"
 xmlns:xlink="http://www.w3.org/1999/xlink"
 xmlns:xodm="http://www.corel.com/coreldraw/odm/2003">
 <g fill="white" fill-rule="evenodd" id="Слой_x0020_1">
  <metadata id="CorelCorpID_0Corel-Layer"/>
  <g id="_1380429277568">
   <path class="fil0" d="M6243.13 6.87c-2075.51,0 -3914.87,1008.23 -5054.13,2560.39l10108.26 0c-1139.26,-1552.16 -2978.61,-2560.39 -5054.13,-2560.39z"/>
   <path class="fil0" d="M711.63 3326.2c-410.19,769.8 -663.75,1635.4 -718.5,2554.34l12500 0c-54.75,-918.94 -308.31,-1784.54 -718.5,-2554.34l-11063 0z"/>
   <path class="fil0" d="M-6.48 6639.4c55.6,919.17 310.17,1784.7 721.38,2554.26l11056.47 0c411.2,-769.56 665.77,-1635.09 721.37,-2554.26l-12499.22 0z"/>
   <path class="fil0" d="M1193.51 9952.61c1139.57,1548.74 2976.82,2554.26 5049.62,2554.26 2072.8,0 3910.06,-1005.52 5049.62,-2554.26l-10099.24 0z"/>
  </g>
 </g>
</svg>
