<svg xmlns="http://www.w3.org/2000/svg" viewBox="0 0 46.58 46.83">
    <g fill="black" fill-rule="evenodd">
        <path class="cls-1" d="M0,24.68A23.25,23.25,0,0,0,1,30.3H45.56a23.74,23.74,0,0,0,1-5.62Z" />
        <path class="cls-1"
            d="M1.87,32.82a23.11,23.11,0,0,0,3.6,5.62H41.11a23.11,23.11,0,0,0,3.6-5.62Z" />
        <path class="cls-1" d="M1,16.53a23.25,23.25,0,0,0-1,5.62H46.58a23.74,23.74,0,0,0-1-5.62Z" />
        <path class="cls-1" d="M38.64,5.87a23,23,0,0,0-30.71,0Z" />
        <path class="cls-1"
            d="M5.47,8.39A23.11,23.11,0,0,0,1.87,14H44.71a23.11,23.11,0,0,0-3.6-5.62Z" />
        <path class="cls-1" d="M7.93,41a23,23,0,0,0,30.71,0Z" />
    </g>
</svg>