<svg xmlns="http://www.w3.org/2000/svg" viewBox="0 0 117.35 36.59">
  <defs>
    <style>
      .cls-1,
      .cls-2,
      .cls-3,
      .cls-4,
      .cls-5,
      .cls-6,
      .cls-7,
      .cls-8 {
        fill: #ffffff;
        fill-rule:evenodd;
      }
    </style>
  </defs>
  <title>Asset 3</title>
  <g id="Layer_2" data-name="Layer 2">
    <g id="Layer_1-2" data-name="Layer 1">
      <polygon class="cls-1" points="0 24.18 3.88 24.18 3.88 15.08 11.05 15.08 11.05 11.85 3.88 11.85 3.88 6.6 13.72 6.6 13.72 3.37 0 3.37 0 24.18" />
      <path class="cls-1" d="M25.26,24.6A10.82,10.82,0,1,1,36.09,13.77,10.84,10.84,0,0,1,25.26,24.6Zm0-18a7.16,7.16,0,1,0,7.17,7.14A7.17,7.17,0,0,0,25.26,6.63Z" />
      <path class="cls-1" d="M50.31,14.91a5.71,5.71,0,0,0,4.14-5.45c0-3.62-2.94-6.09-7.37-6.09H38.52V24.18h3.86V15.62h4l5.33,8.56h4.42Zm-3.65-2.5H42.38V6.6h4.25c1.5,0,4,.37,4,2.86C50.68,11.31,49.18,12.41,46.66,12.41Z" />
      <path class="cls-1" d="M82.43,3a10.8,10.8,0,0,0-7.65,3.18c.2.2.39.42.59.65a10.28,10.28,0,0,1,1.56,2.41,7.17,7.17,0,1,1,0,9.13,10.83,10.83,0,0,1-1.56,2.43c-.2.23-.39.43-.59.63A10.81,10.81,0,1,0,82.43,3Z" />
      <polygon class="cls-1" points="112.9 3.37 106.5 12.13 100.23 3.37 95.67 3.37 95.67 24.18 99.55 24.18 99.55 8.47 105.56 16.78 107.35 16.78 113.44 8.47 113.44 24.18 117.35 24.18 117.35 3.37 112.9 3.37" />
      <path class="cls-2" d="M67.12,3a10.75,10.75,0,0,0-6.91,2.5H74A10.76,10.76,0,0,0,67.12,3Z" />
      <path class="cls-2" d="M77,9.29A11.11,11.11,0,0,0,75.37,6.8H58.88a11.11,11.11,0,0,0-1.59,2.49Z" />
      <path class="cls-2" d="M77.47,10.6H56.78a12.32,12.32,0,0,0-.46,2.52h21.6A10.09,10.09,0,0,0,77.47,10.6Z" />
      <path class="cls-2" d="M56.32,14.42A12.17,12.17,0,0,0,56.78,17H77.47a10,10,0,0,0,.45-2.53Z" />
      <path class="cls-2" d="M67.12,24.6A10.61,10.61,0,0,0,74,22.08H60.21A10.61,10.61,0,0,0,67.12,24.6Z" />
      <path class="cls-2" d="M75.37,20.77A11.53,11.53,0,0,0,77,18.25H57.29a11.53,11.53,0,0,0,1.59,2.52Z" />
    </g>
  </g>
</svg>